<mxfile host="app.diagrams.net" modified="2023-12-22T02:57:47.746Z" agent="Mozilla/5.0 (Windows NT 10.0; Win64; x64; rv:120.0) Gecko/20100101 Firefox/120.0" version="21.6.2" etag="vKNG9z9w1Pgwsod2R_fs" type="github">
  <diagram name="第 1 页" id="RDBFxmjS9sqyvhYii-Ov">
    <mxGraphModel>
      <root>
        <mxCell id="0" />
        <mxCell id="1" parent="0" />
      </root>
    </mxGraphModel>
  </diagram>
</mxfile>
